<svg xmlns="http://www.w3.org/2000/svg" style="display:none">
  <symbol id="i-search" viewBox="0 0 24 24">
    <circle cx="11" cy="11" r="6.5" fill="none" stroke="currentColor" stroke-width="1.9"/>
    <path d="M16.2 16.2L21 21" fill="none" stroke="currentColor" stroke-width="1.9" stroke-linecap="round"/>
  </symbol>
  <symbol id="i-bookmark" viewBox="0 0 24 24">
    <path d="M7 4h10a1 1 0 0 1 1 1v16l-6-3-6 3V5a1 1 0 0 1 1-1z" fill="none" stroke="currentColor" stroke-width="1.9" stroke-linejoin="round"/>
  </symbol>
  <symbol id="i-settings" viewBox="0 0 24 24">
    <circle cx="12" cy="12" r="2.8" fill="none" stroke="currentColor" stroke-width="1.9"/>
    <path d="M19.4 15a1 1 0 0 0 .2 1.1l.1.1a1.3 1.3 0 0 1 0 1.8l-1.2 1.2a1.3 1.3 0 0 1-1.8 0l-.1-.1a1 1 0 0 0-1.1-.2 1 1 0 0 0-.6.9V20a1.3 1.3 0 0 1-1.3 1.3h-1.8a1.3 1.3 0 0 1-1.3-1.3v-.2a1 1 0 0 0-.6-.9 1 1 0 0 0-1.1.2l-.1.1a1.3 1.3 0 0 1-1.8 0l-1.2-1.2a1.3 1.3 0 0 1 0-1.8l.1-.1a1 1 0 0 0 .2-1.1 1 1 0 0 0-.9-.6H4a1.3 1.3 0 0 1-1.3-1.3v-1.8A1.3 1.3 0 0 1 4 9.3h.2a1 1 0 0 0 .9-.6 1 1 0 0 0-.2-1.1l-.1-.1a1.3 1.3 0 0 1 0-1.8L6 4.5a1.3 1.3 0 0 1 1.8 0l.1.1a1 1 0 0 0 1.1.2 1 1 0 0 0 .6-.9V4a1.3 1.3 0 0 1 1.3-1.3h1.8A1.3 1.3 0 0 1 14 4v.2a1 1 0 0 0 .6.9 1 1 0 0 0 1.1-.2l.1-.1a1.3 1.3 0 0 1 1.8 0l1.2 1.2a1.3 1.3 0 0 1 0 1.8l-.1.1a1 1 0 0 0-.2 1.1 1 1 0 0 0 .9.6h.2A1.3 1.3 0 0 1 21.3 11v1.8a1.3 1.3 0 0 1-1.3 1.3h-.2a1 1 0 0 0-.4.9z" fill="none" stroke="currentColor" stroke-width="1.5" stroke-linecap="round" stroke-linejoin="round"/>
  </symbol>
  <symbol id="i-import" viewBox="0 0 24 24">
    <path d="M12 3v11" fill="none" stroke="currentColor" stroke-width="1.9" stroke-linecap="round"/>
    <path d="M8 10l4 4 4-4" fill="none" stroke="currentColor" stroke-width="1.9" stroke-linecap="round" stroke-linejoin="round"/>
    <path d="M4 14.5V19a2 2 0 0 0 2 2h12a2 2 0 0 0 2-2v-4.5" fill="none" stroke="currentColor" stroke-width="1.9" stroke-linecap="round"/>
  </symbol>
  <symbol id="i-export" viewBox="0 0 24 24">
    <path d="M12 21V10" fill="none" stroke="currentColor" stroke-width="1.9" stroke-linecap="round"/>
    <path d="M8 14l4-4 4 4" fill="none" stroke="currentColor" stroke-width="1.9" stroke-linecap="round" stroke-linejoin="round"/>
    <path d="M4 9.5V5a2 2 0 0 1 2-2h12a2 2 0 0 1 2 2v4.5" fill="none" stroke="currentColor" stroke-width="1.9" stroke-linecap="round"/>
  </symbol>
  <symbol id="i-clipboard" viewBox="0 0 24 24">
    <rect x="6" y="4.5" width="12" height="16.5" rx="2" fill="none" stroke="currentColor" stroke-width="1.9"/>
    <rect x="9" y="2.7" width="6" height="3.6" rx="1.2" fill="none" stroke="currentColor" stroke-width="1.9"/>
    <path d="M9.5 10h5M9.5 13.5h5M9.5 17h3.5" fill="none" stroke="currentColor" stroke-width="1.7" stroke-linecap="round"/>
  </symbol>
  <symbol id="i-chat" viewBox="0 0 24 24">
    <path d="M4.5 6.5a2.5 2.5 0 0 1 2.5-2.5h10a2.5 2.5 0 0 1 2.5 2.5v6A2.5 2.5 0 0 1 17 15H11l-4.5 4v-4H7a2.5 2.5 0 0 1-2.5-2.5z" fill="none" stroke="currentColor" stroke-width="1.9" stroke-linejoin="round"/>
  </symbol>
  <symbol id="i-gem" viewBox="0 0 24 24">
    <path d="M6 8.5l2.8-3h6.4L18 8.5 12 19z" fill="none" stroke="currentColor" stroke-width="1.9" stroke-linejoin="round"/>
    <path d="M6 8.5h12M9 5.5l3 13.5M15 5.5L12 19" fill="none" stroke="currentColor" stroke-width="1.7" stroke-linejoin="round"/>
  </symbol>
  <symbol id="i-arrow-left" viewBox="0 0 24 24">
    <path d="M15.5 5.5L9 12l6.5 6.5" fill="none" stroke="currentColor" stroke-width="2" stroke-linecap="round" stroke-linejoin="round"/>
  </symbol>
  <symbol id="i-arrow-right" viewBox="0 0 24 24">
    <path d="M8.5 5.5L15 12l-6.5 6.5" fill="none" stroke="currentColor" stroke-width="2" stroke-linecap="round" stroke-linejoin="round"/>
  </symbol>
  <symbol id="i-chevron-down" viewBox="0 0 24 24">
    <path d="M5.5 9.5L12 16l6.5-6.5" fill="none" stroke="currentColor" stroke-width="2" stroke-linecap="round" stroke-linejoin="round"/>
  </symbol>
  <symbol id="i-check" viewBox="0 0 24 24">
    <path d="M5.5 12.5l4.2 4.2L18.5 8" fill="none" stroke="currentColor" stroke-width="2.2" stroke-linecap="round" stroke-linejoin="round"/>
  </symbol>
  <symbol id="i-send" viewBox="0 0 24 24">
    <path d="M4 11.5l15-7-4 15-2.8-5.2z" fill="none" stroke="currentColor" stroke-width="1.9" stroke-linejoin="round"/>
    <path d="M8.2 14.3l4.7-4.7" fill="none" stroke="currentColor" stroke-width="1.9" stroke-linecap="round"/>
  </symbol>
  <symbol id="i-folder" viewBox="0 0 24 24">
    <path d="M3 7.5a2 2 0 0 1 2-2h4l2 2h8a2 2 0 0 1 2 2v7.5a2 2 0 0 1-2 2H5a2 2 0 0 1-2-2z" fill="none" stroke="currentColor" stroke-width="1.9" stroke-linejoin="round"/>
  </symbol>
  <symbol id="i-file" viewBox="0 0 24 24">
    <path d="M7 3.5h6.5L18 8v12.5H7z" fill="none" stroke="currentColor" stroke-width="1.9" stroke-linejoin="round"/>
    <path d="M13.5 3.5V8H18M9.5 11.5h6M9.5 14.5h6M9.5 17.5h4" fill="none" stroke="currentColor" stroke-width="1.7" stroke-linecap="round" stroke-linejoin="round"/>
  </symbol>
  <symbol id="i-home" viewBox="0 0 24 24">
    <path d="M4.5 10.5L12 4l7.5 6.5V20h-5.5v-5h-4v5H4.5z" fill="none" stroke="currentColor" stroke-width="1.9" stroke-linejoin="round"/>
  </symbol>
  <symbol id="i-plus" viewBox="0 0 24 24">
    <path d="M12 5v14M5 12h14" fill="none" stroke="currentColor" stroke-width="2" stroke-linecap="round"/>
  </symbol>
  <symbol id="i-close" viewBox="0 0 24 24">
    <path d="M6 6l12 12M18 6L6 18" fill="none" stroke="currentColor" stroke-width="2" stroke-linecap="round"/>
  </symbol>
  <symbol id="i-eraser" viewBox="0 0 24 24">
    <path d="M7.5 15.5l6.8-6.8a2 2 0 0 1 2.8 0l2.4 2.4a2 2 0 0 1 0 2.8L13 20.5H8.5L5 17a2 2 0 0 1 0-2.8z" fill="none" stroke="currentColor" stroke-width="1.9" stroke-linejoin="round"/>
    <path d="M9 20.5h10" fill="none" stroke="currentColor" stroke-width="1.9" stroke-linecap="round"/>
  </symbol>
  <symbol id="i-sections" viewBox="0 0 24 24">
    <rect x="4" y="5" width="16" height="3.5" rx="1.5" fill="none" stroke="currentColor" stroke-width="1.7"/>
    <rect x="4" y="10.25" width="16" height="3.5" rx="1.5" fill="none" stroke="currentColor" stroke-width="1.7"/>
    <rect x="4" y="15.5" width="16" height="3.5" rx="1.5" fill="none" stroke="currentColor" stroke-width="1.7"/>
  </symbol>
  <symbol id="i-bot" viewBox="0 0 24 24">
    <rect x="5.5" y="7" width="13" height="10.5" rx="2.2" fill="none" stroke="currentColor" stroke-width="1.9"/>
    <path d="M12 4.5v2.5M9.4 12h.1M14.5 12h.1M9 15h6" fill="none" stroke="currentColor" stroke-width="1.9" stroke-linecap="round"/>
  </symbol>
  <symbol id="i-trash" viewBox="0 0 24 24">
    <path d="M5.5 7h13M9 7V5h6v2M8 7l.8 12h6.4L16 7" fill="none" stroke="currentColor" stroke-width="1.9" stroke-linecap="round" stroke-linejoin="round"/>
    <path d="M10.3 10.2v6.5M13.7 10.2v6.5" fill="none" stroke="currentColor" stroke-width="1.7" stroke-linecap="round"/>
  </symbol>
  <symbol id="i-brain" viewBox="0 0 24 24">
    <path d="M8.5 8.5a2.5 2.5 0 1 1 4-2 2.5 2.5 0 1 1 3.5 2.5 2.5 2.5 0 0 1 .8 4.8 2.4 2.4 0 0 1-1.8 4.2h-6a2.4 2.4 0 0 1-1.8-4.2A2.5 2.5 0 0 1 8.5 8.5z" fill="none" stroke="currentColor" stroke-width="1.8" stroke-linejoin="round"/>
    <path d="M10 8.5v7M14 8.5v7M10 11.5h4M9.2 14.8h5.6" fill="none" stroke="currentColor" stroke-width="1.6" stroke-linecap="round"/>
  </symbol>
  <symbol id="i-user" viewBox="0 0 24 24">
    <circle cx="12" cy="8" r="3.2" fill="none" stroke="currentColor" stroke-width="1.9"/>
    <path d="M5.5 19a6.5 6.5 0 0 1 13 0" fill="none" stroke="currentColor" stroke-width="1.9" stroke-linecap="round"/>
  </symbol>
  <symbol id="i-target" viewBox="0 0 24 24">
    <circle cx="12" cy="12" r="7.5" fill="none" stroke="currentColor" stroke-width="1.9"/>
    <circle cx="12" cy="12" r="3.5" fill="none" stroke="currentColor" stroke-width="1.9"/>
    <circle cx="12" cy="12" r="1.2" fill="currentColor"/>
  </symbol>
  <symbol id="i-bolt" viewBox="0 0 24 24">
    <path d="M13.5 3.5L7 13h4l-1 7.5 7-10h-4z" fill="none" stroke="currentColor" stroke-width="1.9" stroke-linejoin="round"/>
  </symbol>
  <symbol id="i-bug" viewBox="0 0 24 24">
    <path d="M8.5 10.5h7M8 14h8M12 7.5v11" fill="none" stroke="currentColor" stroke-width="1.7" stroke-linecap="round"/>
    <path d="M9 8a3 3 0 0 1 6 0v7a3 3 0 0 1-6 0z" fill="none" stroke="currentColor" stroke-width="1.9"/>
    <path d="M5.5 10.5H8M16 10.5h2.5M6.5 14h2M15.5 14h2" fill="none" stroke="currentColor" stroke-width="1.7" stroke-linecap="round"/>
  </symbol>
  <symbol id="i-spark" viewBox="0 0 24 24">
    <path d="M12 4.2l1.8 4.2 4.5 1.8-4.5 1.8L12 16.2l-1.8-4.2-4.5-1.8 4.5-1.8z" fill="none" stroke="currentColor" stroke-width="1.9" stroke-linejoin="round"/>
  </symbol>
  <symbol id="i-menu" viewBox="0 0 24 24">
    <path d="M5 7h14M5 12h14M5 17h14" fill="none" stroke="currentColor" stroke-width="1.9" stroke-linecap="round"/>
  </symbol>
</svg>
